<?xml version="1.0" standalone="no"?>
<!DOCTYPE svg PUBLIC "-//W3C//DTD SVG 20010904//EN"
 "http://www.w3.org/TR/2001/REC-SVG-20010904/DTD/svg10.dtd">
<svg version="1.0" xmlns="http://www.w3.org/2000/svg"
 width="1536.000000pt" height="1024.000000pt" viewBox="0 0 1536.000000 1024.000000"
 preserveAspectRatio="xMidYMid meet">

<g transform="translate(0.000000,1024.000000) scale(0.100000,-0.100000)"
fill="#000000" stroke="none">
<path d="M9295 7223 c-330 -11 -549 -37 -749 -87 -374 -95 -696 -258 -1006
-509 -58 -47 -280 -261 -494 -477 -485 -488 -679 -657 -898 -782 -46 -26 -90
-52 -98 -58 -24 -17 349 -4 445 15 133 27 262 74 420 154 222 112 386 227 770
536 223 179 404 315 504 379 317 202 703 331 1131 380 264 30 474 37 1730 56
360 6 672 13 693 15 160 22 222 182 107 279 -57 48 -59 48 -865 71 -1091 32
-1414 38 -1690 28z"/>
<path d="M7403 5559 c-84 -10 -165 -44 -278 -118 -104 -69 -212 -119 -359
-169 -65 -23 -121 -43 -124 -46 -3 -3 60 -6 139 -6 79 0 262 -5 407 -12 218
-10 258 -14 234 -24 -31 -13 -318 -25 -944 -40 l-257 -6 -41 -55 c-102 -134
-362 -381 -575 -544 -196 -151 -567 -389 -605 -389 -7 0 -10 -3 -6 -7 4 -4 37
-10 74 -14 37 -4 94 -12 127 -18 104 -19 316 -25 401 -11 115 18 305 72 440
125 157 61 525 244 799 395 314 174 399 216 494 243 79 23 86 27 97 59 39 115
126 235 218 305 103 77 170 101 416 148 265 51 613 136 633 155 8 7 -138 14
-718 30 -376 11 -471 11 -572 -1z"/>
<path d="M8885 5474 c-154 -18 -234 -32 -382 -65 -94 -22 -266 -52 -382 -69
-116 -16 -242 -38 -279 -49 -91 -28 -184 -85 -244 -150 -46 -51 -138 -218
-138 -252 0 -10 -21 -22 -57 -33 -77 -24 -224 -96 -413 -201 -367 -205 -759
-397 -969 -474 -319 -117 -516 -143 -1171 -157 -179 -4 -332 -8 -340 -10 -8
-1 -100 -3 -205 -4 -224 -2 -219 -9 29 -45 362 -51 735 -86 1236 -115 925 -53
1566 -54 1970 -4 282 35 669 129 960 234 575 206 986 290 1524 310 321 12 368
24 447 107 83 87 115 214 106 423 -6 159 -34 261 -96 357 -45 71 -76 94 -168
130 -61 24 -81 27 -203 27 -199 1 -300 -30 -484 -147 -44 -28 -74 -53 -67 -55
6 -2 41 1 78 8 36 6 67 9 70 6 10 -9 -219 -68 -417 -106 -224 -43 -619 -104
-626 -97 -3 2 55 19 128 37 287 71 613 198 825 322 l108 63 -155 6 c-164 7
-634 8 -685 3z m1332 -105 c-117 -28 -207 -129 -253 -284 -23 -80 -31 -51 -9
31 40 149 159 265 270 263 28 -1 27 -2 -8 -10z m-2082 -411 c-40 -89 -58 -215
-51 -353 3 -66 10 -138 16 -160 12 -52 4 -58 -10 -7 -20 75 -32 207 -25 282 7
90 39 215 66 258 29 48 31 38 4 -20z m-456 -862 c-10 -10 -253 -46 -378 -56
-153 -11 -1209 -12 -1171 0 14 4 201 8 415 9 441 2 856 16 990 35 98 14 151
18 144 12z"/>
<path d="M5327 5425 c-108 -27 -205 -83 -288 -165 -128 -126 -184 -258 -196
-460 -8 -147 1 -216 34 -237 77 -51 377 -13 557 71 149 69 345 218 454 345 81
94 84 106 36 147 -111 94 -241 115 -361 60 -42 -19 -81 -48 -121 -90 -64 -66
-93 -115 -128 -216 -21 -59 -23 -62 -23 -30 -2 104 56 230 149 321 138 136
302 154 505 55 101 -49 110 -39 32 37 -59 58 -135 106 -229 145 -56 23 -79 26
-213 29 -107 2 -167 -2 -208 -12z"/>
<path d="M5050 4439 c-258 -14 -396 -35 -700 -109 -157 -39 -359 -87 -449
-108 l-165 -39 85 -6 c146 -12 923 -8 980 4 55 12 269 118 429 213 l95 56 -60
-2 c-33 0 -130 -5 -215 -9z"/>
</g>
</svg>
